<?xml version="1.0" standalone="no"?>
<!DOCTYPE svg PUBLIC "-//W3C//DTD SVG 1.1//EN" "http://www.w3.org/Graphics/SVG/1.1/DTD/svg11.dtd" >
<svg xmlns="http://www.w3.org/2000/svg">
<metadata>Generated by IcoMoon</metadata>
<defs>
<font id="icomoon" horiz-adv-x="1024">
<font-face units-per-em="1024" ascent="960" descent="-64" />
<missing-glyph horiz-adv-x="1024" />
<glyph unicode="&#x20;" horiz-adv-x="512" d="" />
<glyph unicode="&#xe900;" glyph-name="checkmark" d="M927.936 687.008l-68.288 68.288c-12.608 12.576-32.96 12.576-45.536 0l-409.44-409.44-194.752 196.16c-12.576 12.576-32.928 12.576-45.536 0l-68.288-68.288c-12.576-12.608-12.576-32.96 0-45.536l285.568-287.488c12.576-12.576 32.96-12.576 45.536 0l500.736 500.768c12.576 12.544 12.576 32.96 0 45.536z" />
<glyph unicode="&#xe901;" glyph-name="user" d="M510.319 388.308c151.331 0 274.075 122.746 274.075 274.075s-122.746 273.236-274.075 273.236-274.075-122.746-274.075-273.236 122.744-274.075 274.075-274.075zM510.319 864.157c110.975 0 201.774-90.797 201.774-201.774s-90.799-201.772-201.774-201.772-201.774 90.797-201.774 201.774 90.797 201.772 201.774 201.772zM36.151-39.619h951.699c20.177 0 36.151 15.973 36.151 36.151 0 189.163-153.852 343.856-343.856 343.856h-336.288c-189.163 0-343.856-153.852-343.856-343.856 0-20.177 15.973-36.151 36.151-36.151zM343.856 268.086h336.288c137.878 0 251.376-102.569 269.032-235.402h-874.352c17.655 131.992 131.154 235.402 269.032 235.402z" />
<glyph unicode="&#xe902;" glyph-name="search" d="M990 27.6l-235.6 235.6c58.4 71.2 93.6 162.4 93.6 261.8 0 228-185 413-413 413-228.2 0-413-185-413-413s184.8-413 413-413c99.4 0 190.4 35 261.6 93.4l235.6-235.4c16-16 41.8-16 57.8 0 16 15.8 16 41.8 0 57.6zM435 194.2c-182.6 0-331 148.4-331 330.8s148.4 331 331 331c182.4 0 331-148.6 331-331s-148.6-330.8-331-330.8z" />
<glyph unicode="&#xe903;" glyph-name="expansion" d="M408.191 390.815l-345.183-345.215 0.992 210.4c0 17.664-14.336 32-32 32s-32-14.336-32-32v-288c0-9.472 3.904-17.12 10.111-22.367 5.793-5.92 13.857-9.633 22.817-9.633h287.071c17.664 0 32 14.334 32 32 0 17.664-14.336 32-32 32h-212.129l345.568 345.536-45.248 45.279zM1013.887 950.367c-5.791 5.92-13.854 9.633-22.782 9.633h-287.105c-17.664 0-32-14.336-32-32s14.336-32 32-32h212.097l-345.536-345.568 45.247-45.247 345.217 345.215-1.024-210.4c0-17.664 14.336-32 32-32s32 14.336 32 32v288c0 9.472-3.904 17.119-10.113 22.367z" />
<glyph unicode="&#xe904;" glyph-name="network" d="M969.135 301.712h-54.855v109.716c0 19.802-7.236 36.937-21.707 51.432-14.485 14.461-31.62 21.709-51.433 21.709h-292.575v109.718h54.851c15.231 0 28.188 5.308 38.856 15.988 10.657 10.659 16.009 23.602 16.009 38.865v182.86c0 15.229-5.338 28.185-16.009 38.854-10.668 10.669-23.625 16-38.856 16h-182.846c-15.241 0-28.196-5.329-38.856-16-10.669-10.669-16.009-23.613-16.009-38.854v-182.858c0-15.262 5.329-28.206 16.009-38.865 10.659-10.68 23.615-15.988 38.856-15.988h54.855v-109.718h-292.577c-19.811 0-36.959-7.246-51.432-21.709-14.484-14.482-21.709-31.631-21.709-51.432v-109.716h-54.853c-15.241 0-28.208-5.331-38.854-15.988-10.671-10.683-16-23.627-16-38.868v-182.858c0-15.229 5.329-28.185 16-38.863 10.659-10.66 23.613-15.988 38.854-15.988h182.858c15.229 0 28.185 5.328 38.854 15.988 10.659 10.678 16.009 23.625 16.009 38.863v182.858c0 15.231-5.34 28.185-16.009 38.867-10.669 10.657-23.625 15.988-38.854 15.988h-54.855v109.716h292.577v-109.716h-54.865c-15.241 0-28.196-5.331-38.856-15.988-10.669-10.682-16.009-23.625-16.009-38.867v-182.858c0-15.229 5.329-28.185 16.009-38.863 10.659-10.66 23.615-15.988 38.856-15.988h182.846c15.231 0 28.188 5.328 38.856 15.988 10.657 10.678 16.009 23.625 16.009 38.863v182.858c0 15.231-5.338 28.185-16.009 38.867-10.668 10.657-23.625 15.988-38.856 15.988h-54.851v109.716h292.575v-109.716h-54.855c-15.241 0-28.196-5.331-38.852-15.988-10.671-10.682-16.013-23.625-16.013-38.867v-182.858c0-15.229 5.331-28.185 16.013-38.863 10.657-10.66 23.611-15.988 38.852-15.988h182.858c15.229 0 28.196 5.328 38.852 15.988 10.66 10.678 16.002 23.625 16.002 38.863v182.858c0 15.231-5.342 28.185-16.002 38.867-10.666 10.657-23.634 15.988-38.861 15.988zM218.344 258.209c16.855 0 30.514-13.662 30.514-30.514v-147.491c0-16.855-13.659-30.514-30.514-30.514h-147.491c-16.855 0-30.514 13.659-30.514 30.514v147.491c0 16.852 13.659 30.514 30.514 30.514h147.491zM585.741 258.209c16.852 0 30.514-13.662 30.514-30.514v-147.491c0-16.855-13.662-30.514-30.514-30.514h-147.493c-16.854 0-30.514 13.659-30.514 30.514v147.491c0 16.852 13.659 30.514 30.514 30.514h147.493zM438.248 637.336c-16.854 0-30.514 13.659-30.514 30.514v147.491c0 16.854 13.659 30.514 30.514 30.514h147.493c16.852 0 30.514-13.659 30.514-30.514v-147.491c0-16.854-13.662-30.514-30.514-30.514h-147.493zM983.647 80.204c0-16.855-13.659-30.514-30.511-30.514h-147.491c-16.855 0-30.514 13.659-30.514 30.514v147.491c0 16.852 13.659 30.514 30.514 30.514h147.491c16.852 0 30.511-13.662 30.511-30.514v-147.491z" />
<glyph unicode="&#xe905;" glyph-name="add-plus" d="M959.998 511.998h-384v384c0 35.346-28.652 63.998-63.998 63.998s-63.998-28.652-63.998-63.998v-383.996h-383.996c-35.346 0-64.005-28.652-64.005-63.998s28.659-63.998 64.005-63.998h383.996v-383.996c0-35.346 28.652-63.998 63.998-63.998s63.998 28.652 63.998 63.998v383.996h384c35.346 0 63.998 28.656 63.998 63.998 0.004 35.342-28.652 63.995-63.998 63.995z" />
<glyph unicode="&#xe906;" glyph-name="home" d="M1002.366 462.423c18.028 21.634 18.028 50.479-3.606 68.507l-450.704 393.014c-21.634 18.028-54.085 18.028-72.113 0l-454.31-414.648c-18.028-18.028-21.634-50.479 0-68.507l10.817-10.817c18.028-18.028 50.479-21.634 68.507-3.606l32.451 28.845v-443.493c0-28.845 21.634-50.479 50.479-50.479h176.676c28.845 0 50.479 21.634 50.479 50.479v310.085h223.549v-310.085c0-28.845 18.028-50.479 46.873-50.479h183.887c28.845 0 50.479 21.634 50.479 50.479v436.282c0 0 10.817-7.211 21.634-18.028s36.056-3.606 54.085 18.028l10.817 14.423z" />
<glyph unicode="&#xe907;" glyph-name="arrow-right" d="M796.845 397.521l-414.648-432.676c-25.239-28.845-68.507-28.845-97.352 0-25.239 28.845-25.239 72.113 0 100.958l367.775 382.197-364.169 385.803c-25.239 28.845-25.239 72.113 0 100.958 25.239 25.239 68.507 25.239 93.746-3.606l414.648-432.676c14.423-14.423 18.028-32.451 18.028-50.479 3.606-18.028-3.606-36.056-18.028-50.479z" />
<glyph unicode="&#xe908;" glyph-name="cancel" d="M633.703 448l365.094 365.094c33.607 33.607 33.607 88.095 0 121.698-33.607 33.607-88.091 33.607-121.698 0l-365.099-365.099-365.099 365.104c-33.607 33.607-88.091 33.607-121.698 0-33.603-33.607-33.603-88.095 0-121.698l365.099-365.094-365.099-365.099c-33.603-33.607-33.603-88.095 0-121.698 33.607-33.607 88.091-33.607 121.698 0l365.099 365.099 365.099-365.099c33.603-33.607 88.091-33.607 121.698 0s33.607 88.091 0 121.698l-365.094 365.094z" />
<glyph unicode="&#xe909;" glyph-name="Checklists" d="M335.324 700.394h328.113c18.028 0 32.451 14.423 32.451 32.451v126.197c0 18.028-14.423 32.451-32.451 32.451h-72.113c-14.423 36.056-50.479 64.901-93.746 64.901s-79.324-25.239-93.746-64.901h-72.113c-18.028 0-32.451-14.423-32.451-32.451v-126.197c3.606-18.028 18.028-32.451 36.056-32.451zM829.296 826.592h-64.901v-93.746c0-50.479-43.268-93.746-97.352-93.746h-331.718c-54.085 0-97.352 43.268-97.352 93.746v93.746h-64.901c-36.056 0-64.901-28.845-64.901-64.901v-757.183c0-36.056 28.845-64.901 64.901-64.901h656.225c36.056 0 64.901 28.845 64.901 64.901v757.183c3.606 39.662-25.239 64.901-64.901 64.901zM490.366 267.718l-129.803-126.197c-7.211-7.211-14.423-10.817-21.634-10.817s-18.028 3.606-21.634 10.817l-64.901 64.901c-14.423 10.817-14.423 32.451 0 43.268s32.451 10.817 46.873 0l43.268-39.662 108.169 104.563c14.423 10.817 32.451 10.817 46.873 0s7.211-32.451-7.211-46.873zM490.366 520.113l-129.803-126.197c-7.211-7.211-14.423-10.817-21.634-10.817s-18.028 3.606-21.634 10.817l-64.901 64.901c-14.423 10.817-14.423 32.451 0 43.268s32.451 10.817 46.873 0l43.268-39.662 108.169 104.563c14.423 10.817 32.451 10.817 46.873 0 7.211-14.423 7.211-32.451-7.211-46.873zM731.944 195.606h-133.408c-18.028 0-32.451 14.423-32.451 32.451s14.423 32.451 32.451 32.451h133.408c18.028 0 32.451-14.423 32.451-32.451s-14.423-32.451-32.451-32.451zM731.944 448h-133.408c-18.028 0-32.451 14.423-32.451 32.451s14.423 32.451 32.451 32.451h133.408c18.028 0 32.451-14.423 32.451-32.451s-14.423-32.451-32.451-32.451z" />
<glyph unicode="&#xe90a;" glyph-name="Companies" d="M616.563 700.394c46.873-28.845 79.324-79.324 86.535-137.014 18.028-7.211 39.662-14.423 61.296-14.423 82.93 0 147.831 64.901 147.831 147.831s-64.901 147.831-147.831 147.831c-82.93 3.606-147.831-61.296-147.831-144.225zM519.211 401.127c82.93 0 147.831 64.901 147.831 147.831s-64.901 147.831-147.831 147.831c-82.93 0-147.831-64.901-147.831-147.831s64.901-147.831 147.831-147.831zM580.507 390.31h-126.197c-104.563 0-187.493-82.93-187.493-187.493v-155.042l10.817-3.606c100.958-32.451 187.493-39.662 256-39.662 140.62 0 219.944 39.662 223.549 43.268l10.817 3.606v151.437c3.606 104.563-82.93 187.493-187.493 187.493zM825.69 541.746h-126.197c0-50.479-21.634-93.746-57.69-126.197 93.746-28.845 162.254-111.775 162.254-212.732v-46.873c122.592 3.606 194.704 39.662 198.31 43.268l10.817 3.606v151.437c3.606 104.563-82.93 187.493-187.493 187.493zM259.606 552.563c28.845 0 54.085 7.211 79.324 21.634 7.211 46.873 32.451 86.535 68.507 115.38 0 3.606 0 7.211 0 7.211 0 82.93-64.901 147.831-147.831 147.831-82.93 3.606-147.831-64.901-147.831-144.225 0-82.93 64.901-147.831 147.831-147.831zM393.014 415.549c-32.451 32.451-54.085 75.718-57.69 126.197-3.606 0-10.817 0-14.423 0h-126.197c-104.563 0-187.493-82.93-187.493-187.493v-155.042l10.817-3.606c79.324-25.239 151.437-36.056 212.732-39.662v46.873c0 100.958 68.507 187.493 162.254 212.732z" />
<glyph unicode="&#xe90b;" glyph-name="Contacts" d="M1016.789 822.986c0 72.113-57.69 133.408-133.408 133.408h-746.366c-72.113 0-133.408-57.69-133.408-133.408v-746.366c0-72.113 57.69-133.408 133.408-133.408h746.366c72.113 0 133.408 57.69 133.408 133.408v746.366zM508.394 718.423c72.113 0 129.803-57.69 129.803-129.803s-57.69-129.803-129.803-129.803-129.803 57.69-129.803 129.803 57.69 129.803 129.803 129.803zM717.521 123.493h-407.437c-39.662 0-72.113 32.451-72.113 72.113 0 111.775 68.507 205.521 165.859 245.183 28.845-21.634 64.901-32.451 104.563-32.451s75.718 14.423 108.169 36.056c100.958-36.056 173.070-133.408 173.070-248.789 0-39.662-32.451-72.113-72.113-72.113z" />
<glyph unicode="&#xe90c;" glyph-name="Dashboard" d="M461.521 859.042c-248.789 0-450.704-201.915-450.704-450.704s201.915-454.31 450.704-454.31c248.789 0 450.704 201.915 450.704 454.31h-450.704v450.704zM558.873 952.789v-454.31h450.704c0 252.394-201.915 454.31-450.704 454.31z" />
<glyph unicode="&#xe90d;" glyph-name="Delete" d="M512 952.789c281.239 0 504.789-223.549 504.789-504.789s-223.549-504.789-504.789-504.789c-281.239 0-504.789 223.549-504.789 504.789s223.549 504.789 504.789 504.789zM436.282 440.789l-173.070-173.070c-3.606-3.606-7.211-10.817-7.211-14.423s3.606-10.817 7.211-14.423l36.056-36.056c3.606-3.606 10.817-7.211 14.423-7.211 7.211 0 10.817 3.606 14.423 7.211l173.070 173.070c3.606 3.606 10.817 3.606 14.423 0l173.070-173.070c3.606-3.606 10.817-7.211 14.423-7.211 7.211 0 10.817 3.606 14.423 7.211l32.451 32.451c3.606 3.606 7.211 10.817 7.211 14.423s-3.606 10.817-7.211 14.423l-173.070 173.070c-3.606 3.606-3.606 10.817 0 14.423l173.070 173.070c3.606 3.606 7.211 10.817 7.211 14.423s-3.606 10.817-7.211 14.423l-28.845 39.662c-3.606 3.606-10.817 7.211-14.423 7.211s-10.817-3.606-14.423-7.211l-173.070-173.070c-3.606-3.606-10.817-3.606-14.423 0l-173.070 173.070c-7.211 3.606-14.423 7.211-18.028 7.211-7.211 0-10.817-3.606-14.423-7.211l-32.451-32.451c-7.211-7.211-7.211-10.817-7.211-18.028 0-3.606 3.606-10.817 7.211-14.423l173.070-173.070c3.606 0 3.606-10.817-3.606-14.423z" />
<glyph unicode="&#xe90e;" glyph-name="Document" d="M209.127 952.789c-57.69 0-100.958-46.873-100.958-100.958v-807.662c0-54.085 46.873-100.958 100.958-100.958h605.746c54.085 0 100.958 46.873 100.958 100.958v605.746l-302.873 302.873h-403.831zM562.479 599.437v277.634l277.634-277.634h-277.634z" />
<glyph unicode="&#xe90f;" glyph-name="folder" d="M299.268 707.606c25.239 25.239 61.296 43.268 97.352 43.268h512v104.563c0 25.239-21.634 46.873-46.873 46.873h-699.493c-25.239 0-46.873-21.634-46.873-46.873v-209.127h126.197l57.69 61.296zM1002.366 646.31c-3.606 3.606-7.211 7.211-10.817 10.817-7.211 3.606-14.423 7.211-21.634 7.211h-573.296c-10.817 0-25.239-3.606-32.451-14.423 0 0 0 0 0 0l-21.634-25.239-50.479-50.479c0 0-3.606-3.606-3.606-3.606-7.211-7.211-18.028-10.817-32.451-10.817h-201.915c-10.817 0-21.634-3.606-32.451-10.817 0 0-3.606-3.606-3.606-3.606s0-3.606-3.606-3.606c-7.211-10.817-10.817-21.634-7.211-32.451l54.085-400.225c7.211-54.085 46.873-97.352 100.958-104.563 7.211 0 14.423-3.606 21.634-3.606h649.014c57.69 0 104.563 39.662 118.986 93.746 0 7.211 3.606 10.817 3.606 18.028l32.451 274.028 25.239 230.761c0 0 0 3.606 0 3.606 3.606 3.606 0 14.423-10.817 25.239z" />
<glyph unicode="&#xe910;" glyph-name="Labs" d="M1005.972 91.042l-292.056 483.155c0 0 0 216.338 0 216.338h-400.225c0 0 0-216.338 0-216.338l-292.056-483.155c-18.028-28.845-18.028-61.296 0-90.141 21.634-36.056 64.901-57.69 111.775-57.69h764.394c46.873 0 111.775 57.69 111.775 57.69s14.423 61.296-3.606 90.141zM299.268 873.465h429.070c21.634 0 43.268 18.028 43.268 39.662s-18.028 39.662-43.268 39.662h-429.070c-21.634 0-43.268-18.028-43.268-39.662 3.606-21.634 21.634-39.662 43.268-39.662z" />
<glyph unicode="&#xe911;" glyph-name="mail" d="M512 303.775l-122.592 108.169-353.352-302.873c14.423-10.817 28.845-18.028 50.479-18.028h858.141c18.028 0 36.056 7.211 50.479 18.028l-353.352 302.873-129.803-108.169zM991.549 786.93c-14.423 10.817-28.845 18.028-50.479 18.028h-858.141c-18.028 0-36.056-7.211-50.479-18.028l479.549-411.042 479.549 411.042zM10.817 743.662v-594.93l346.141 295.662-346.141 299.268zM667.042 444.394l346.141-295.662v594.93l-346.141-299.268z" />
<glyph unicode="&#xe912;" glyph-name="pencil" d="M910.2 684.2l-64.8-64.8-162 162.2 64.8 64.8c13.2 13.2 36.2 13.2 49.4 0l112.6-112.8c13.6-13.6 13.6-35.8 0-49.4zM368.8 142.2l-162 162.2 418.8 419.4 162-162.2-418.8-419.4zM169.4 226.2l121.2-121.4-168.8-47.6 47.6 169zM968 791.4l-112.6 112.8c-22 22-101.4 63.6-164.8 0l-570.6-571c-5-5-8.6-11-10.4-17.8l-86-306.2c-4-14.2 0.2-29.4 10.4-40 10.4-10.6 31.2-12.4 40-10.4l306 86.2c6.8 1.8 12.8 5.4 17.8 10.4l570.2 571c45.4 45.4 45.4 119.4 0 165z" />
<glyph unicode="&#xe913;" glyph-name="Phone" d="M991.549 159.549l-155.042 155.042c-28.845 32.451-79.324 28.845-111.775-3.606l-79.324-79.324c-3.606 3.606-10.817 7.211-14.423 7.211-50.479 28.845-115.38 64.901-187.493 137.014s-108.169 140.62-137.014 187.493c-3.606 3.606-7.211 10.817-7.211 14.423l50.479 57.69 25.239 25.239c32.451 32.451 32.451 82.93 3.606 115.38l-155.042 155.042c-32.451 32.451-82.93 28.845-115.38-3.606l-43.268-43.268c-14.423-18.028-25.239-39.662-36.056-64.901-7.211-21.634-10.817-43.268-14.423-64.901-21.634-169.465 57.69-324.507 266.817-537.239 292.056-292.056 526.423-270.423 537.239-270.423 21.634 3.606 43.268 7.211 64.901 18.028s43.268 21.634 64.901 36.056v0l43.268 43.268c32.451 32.451 32.451 82.93 0 115.38z" />
<glyph unicode="&#xe914;" glyph-name="plus-arround" d="M752.96 470.195h-213.668v213.668c0 12.335-9.993 22.328-22.328 22.328-12.328 0-22.328-9.993-22.328-22.328v-213.668h-224.612c-12.335 0-22.328-10-22.328-22.328 0-12.335 9.993-22.328 22.328-22.328h224.836v-224.836c0-12.328 10-22.328 22.321-22.328 12.335 0 22.328 10 22.328 22.328v224.836h213.682c12.321 0.063 22.272 10.112 22.209 22.44-0.056 12.321-10.105 22.272-22.44 22.216zM512.272 927.902c-194.158 0.035-369.211-116.914-443.51-296.296-74.286-179.389-33.195-385.861 104.138-523.111 187.438-187.438 491.321-187.438 678.752 0 187.431 187.424 187.431 491.307 0 678.745-89.81 90.32-212.011 140.97-339.379 140.662zM512.272 12.482c-240.017 0-435.378 195.368-435.378 435.385s195.361 435.378 435.378 435.378 435.385-195.361 435.385-435.378-195.368-435.385-435.385-435.385z" />
<glyph unicode="&#xe915;" glyph-name="plus-arround-full" d="M508.394 949.183c-274.028 0-501.183-223.549-501.183-501.183s227.155-501.183 501.183-501.183 501.183 227.155 501.183 501.183-223.549 501.183-501.183 501.183zM760.789 397.521h-201.915v-201.915h-100.958v201.915h-198.31v100.958h201.915v201.915h100.958v-201.915h201.915v-100.958z" />
<glyph unicode="&#xe916;" glyph-name="Preliminary-control" d="M879.775 851.831h-219.944c-21.634 57.69-79.324 100.958-147.831 100.958s-126.197-43.268-147.831-100.958h-223.549c-57.69 0-104.563-43.268-104.563-100.958v-706.704c0-54.085 46.873-100.958 104.563-100.958h739.155c57.69 0 104.563 46.873 104.563 100.958v706.704c3.606 57.69-43.268 100.958-104.563 100.958zM512 851.831c28.845 0 54.085-21.634 54.085-50.479s-25.239-50.479-54.085-50.479c-28.845 0-54.085 21.634-54.085 50.479s25.239 50.479 54.085 50.479zM403.831 145.127l-209.127 201.915 75.718 72.113 137.014-129.803 349.746 331.718 75.718-72.113-429.070-403.831z" />
<glyph unicode="&#xe917;" glyph-name="Project-Details" d="M512 952.789c-277.634 0-504.789-227.155-504.789-504.789s223.549-501.183 501.183-501.183 501.183 223.549 501.183 501.183-223.549 504.789-497.577 504.789zM310.085 267.718c-18.028 0-36.056 14.423-36.056 36.056 0 18.028 14.423 36.056 36.056 36.056 18.028 0 36.056-14.423 36.056-36.056s-18.028-36.056-36.056-36.056zM310.085 415.549c-18.028 0-36.056 14.423-36.056 36.056 0 18.028 14.423 36.056 36.056 36.056 18.028 0 36.056-14.423 36.056-36.056s-18.028-36.056-36.056-36.056zM310.085 563.38c-18.028 0-36.056 14.423-36.056 36.056 0 18.028 14.423 36.056 36.056 36.056 18.028 0 36.056-14.423 36.056-36.056s-18.028-36.056-36.056-36.056zM746.366 267.718h-324.507c-18.028 0-36.056 14.423-36.056 36.056s14.423 36.056 36.056 36.056h324.507c18.028 0 36.056-14.423 36.056-36.056s-18.028-36.056-36.056-36.056zM746.366 415.549h-324.507c-18.028 0-36.056 14.423-36.056 36.056 0 18.028 14.423 36.056 36.056 36.056h324.507c18.028 0 36.056-14.423 36.056-36.056-3.606-21.634-18.028-36.056-36.056-36.056zM746.366 563.38h-324.507c-18.028 0-36.056 14.423-36.056 36.056 0 18.028 14.423 36.056 36.056 36.056h324.507c18.028 0 36.056-14.423 36.056-36.056-3.606-21.634-18.028-36.056-36.056-36.056z" />
<glyph unicode="&#xe918;" glyph-name="settings" d="M1009.577 502.085c0 14.423-18.028 25.239-32.451 25.239-46.873 0-86.535 25.239-104.563 68.507s-7.211 93.746 28.845 122.592c10.817 10.817 10.817 25.239 3.606 36.056-25.239 28.845-50.479 57.69-79.324 79.324-10.817 10.817-28.845 7.211-39.662-3.606-28.845-32.451-82.93-46.873-126.197-28.845s-72.113 61.296-68.507 108.169c0 14.423-10.817 28.845-25.239 28.845-36.056 3.606-75.718 3.606-111.775 0-14.423 0-25.239-14.423-25.239-28.845 0-46.873-25.239-90.141-68.507-108.169-39.662-7.211-90.141 3.606-122.592 36.056-7.211 10.817-25.239 14.423-36.056 3.606-28.845-21.634-57.69-50.479-82.93-79.324-7.211-10.817-7.211-28.845 3.606-39.662 36.056-32.451 46.873-82.93 28.845-126.197-18.028-39.662-61.296-68.507-108.169-68.507-14.423 0-28.845-10.817-28.845-25.239-3.606-36.056-3.606-75.718 0-115.38 0-14.423 18.028-25.239 32.451-25.239 43.268 0 86.535-25.239 104.563-68.507s7.211-93.746-28.845-122.592c-10.817-10.817-10.817-25.239-3.606-36.056 21.634-28.845 50.479-57.69 79.324-79.324 10.817-10.817 28.845-7.211 39.662 3.606 28.845 32.451 82.93 46.873 126.197 28.845s72.113-61.296 68.507-108.169c0-14.423 10.817-28.845 25.239-28.845 18.028-3.606 39.662-3.606 57.69-3.606s36.056 0 54.085 3.606c14.423 0 25.239 14.423 25.239 28.845 0 46.873 25.239 90.141 68.507 108.169 39.662 18.028 93.746 3.606 122.592-28.845 10.817-10.817 25.239-10.817 39.662-3.606 28.845 25.239 57.69 50.479 82.93 79.324 10.817 10.817 7.211 28.845-3.606 39.662-36.056 32.451-46.873 82.93-28.845 126.197 18.028 39.662 57.69 68.507 100.958 68.507h7.211c14.423 0 28.845 10.817 28.845 25.239 0 32.451 0 72.113-3.606 108.169zM512 278.535c-93.746 0-165.859 75.718-165.859 165.859 0 93.746 75.718 165.859 165.859 165.859 93.746 0 165.859-75.718 165.859-165.859 3.606-90.141-72.113-165.859-165.859-165.859z" />
<glyph unicode="&#xe919;" glyph-name="Project-tree" d="M10.817 87.437h1002.366v212.732h-1002.366v-212.732zM108.169 246.085h100.958v-104.563h-100.958v104.563zM10.817 830.197v-212.732h1002.366v212.732h-1002.366zM209.127 671.549h-100.958v104.563h100.958v-104.563zM10.817 350.648h1002.366v212.732h-1002.366v-212.732zM108.169 512.901h100.958v-104.563h-100.958v104.563z" />
<glyph unicode="&#xe91a;" glyph-name="Reports" d="M382.197 466.028h-61.296c-32.451 0-57.69-25.239-57.69-57.69v-400.225c0-32.451 25.239-57.69 57.69-57.69h61.296c32.451 0 57.69 25.239 57.69 57.69v400.225c0 28.845-25.239 57.69-57.69 57.69zM118.986 329.014h-50.479c-32.451 0-61.296-28.845-61.296-61.296v-256c0-32.451 28.845-61.296 61.296-61.296h50.479c36.056 0 61.296 28.845 61.296 61.296v256c0 32.451-25.239 61.296-61.296 61.296zM634.592 617.465h-61.296c-32.451 0-57.69-25.239-57.69-57.69v-551.662c0-32.451 25.239-57.69 57.69-57.69h61.296c32.451 0 57.69 25.239 57.69 57.69v551.662c0 32.451-25.239 57.69-57.69 57.69zM1009.577 779.718l-111.775 144.225c-10.817 10.817-21.634 18.028-36.056 18.028s-28.845-7.211-36.056-18.028l-111.775-144.225c-10.817-10.817-10.817-25.239-7.211-36.056 7.211-10.817 21.634-18.028 39.662-18.028h28.845v-717.521c0-32.451 25.239-54.085 57.69-54.085h61.296c32.451 0 57.69 25.239 57.69 54.085v713.915h28.845c18.028 0 32.451 7.211 39.662 18.028 3.606 14.423 0 28.845-10.817 39.662z" />
<glyph unicode="&#xe91b;" glyph-name="new-document" d="M525.938 942.43v-239.492h239.492zM422 207c0 182.516 148.484 331 331 331 10.117 0 20.117-0.484 30-1.375v106.305h-287.063c-16.57 0-30 13.438-30 30v287.070h-435.938c-16.57 0-30-13.43-30-30v-964c0-16.57 13.43-30 30-30h533.172c-85.305 59.938-141.172 159.055-141.172 271zM833.336 237h-50.336v50.336c0 16.563-13.43 30-30 30s-30-13.438-30-30v-50.336h-50.328c-16.57 0-30-13.43-30-30s13.43-30 30-30h50.328v-50.336c0-16.563 13.43-30 30-30s30 13.438 30 30v50.336h50.336c16.57 0 30 13.43 30 30s-13.43 30-30 30zM753 478c-149.43 0-271-121.57-271-271s121.57-271 271-271 271 121.57 271 271-121.57 271-271 271zM753-4c-116.344 0-211 94.656-211 211s94.656 211 211 211 211-94.656 211-211-94.656-211-211-211z" />
<glyph unicode="&#xe91c;" glyph-name="art-and-design" d="M956.306 262.342l-56.149 28.070-270.805-135.407c-32.188-16.094-73.172-24.961-115.406-24.969-42.227 0-83.211 8.867-115.399 24.961l-270.821 135.414-56.149-28.070c-30.242-15.125-47.578-38.602-47.578-64.414 0-25.805 17.344-49.281 47.578-64.399l353.805-176.907c24.836-12.414 56.695-18.625 88.563-18.625 31.867 0.008 63.735 6.211 88.563 18.625l353.798 176.899c30.242 15.125 47.586 38.594 47.586 64.406s-17.344 49.289-47.586 64.414zM956.306 514.382l-56.149 28.078-270.813-135.414c-32.242-16.125-73.227-25-115.399-25s-83.156 8.875-115.399 25l-270.813 135.414-56.156-28.078c-30.234-15.117-47.578-38.594-47.578-64.406 0-25.805 17.344-49.281 47.578-64.399l353.805-176.907c24.836-12.414 56.695-18.625 88.563-18.625 31.867 0.008 63.735 6.211 88.563 18.625l353.798 176.899c30.242 15.125 47.586 38.594 47.586 64.406s-17.352 49.289-47.586 64.406zM71.577 637.624l353.805-176.907c24.070-12.039 55.524-18.672 88.563-18.672s64.492 6.633 88.563 18.672l353.79 176.899c30.242 15.125 47.594 38.594 47.594 64.406s-17.344 49.289-47.586 64.414l-353.79 176.891c-24.078 12.039-55.531 18.672-88.57 18.672s-64.492-6.633-88.563-18.672l-353.805-176.891c-30.242-15.125-47.578-38.602-47.578-64.414s17.344-49.281 47.578-64.399z" />
</font>
</defs>
</svg>
